<svg xmlns="http://www.w3.org/2000/svg" id="Layer_1" data-name="Layer 1" viewBox="0 0 1748.71 299.48" transform="matrix(1, 0, 0, 1, 0, 0)">
  <g>
    <path d="m104.1,3.97L0,294.99h47.85l26.1-76.37h115.02l26.65,76.37h47.85L158.2,3.97h-54.1Zm71.92,177.54h-89.39l16.69-48.83c4.3-12.89,9.05-28.19,14.26-45.9,3.96-13.45,8.4-29.02,13.34-46.69,5.01,17.52,9.52,32.92,13.52,46.2,5.27,17.51,10.12,32.98,14.55,46.39l17.04,48.83Z" fill="#d4d4d4"/>
    <rect x="296.93" y="3.97" width="44.53" height="291.02" fill="#d4d4d4"/>
    <path d="m557.92,16.08c-14.98-8.07-33.53-12.11-55.66-12.11h-105.08v291.02h44.53v-103.52h59.96c22.27,0,40.92-4.07,55.96-12.21,15.04-8.14,26.4-19.27,34.08-33.4,7.68-14.13,11.52-30.24,11.52-48.34s-3.81-34.01-11.43-48.14c-7.62-14.13-18.92-25.23-33.89-33.3Zm-5.66,110.55c-4.3,8.47-10.91,15.07-19.82,19.82-8.92,4.75-20.35,7.13-34.28,7.13h-56.45V42.06h56.25c13.93,0,25.39,2.34,34.38,7.03s15.62,11.2,19.92,19.53c4.3,8.33,6.45,17.97,6.45,28.91s-2.15,20.64-6.45,29.1Z" fill="#d4d4d4"/>
    <path d="m782.68,90.2c-15.17-9.31-32.98-13.96-53.42-13.96s-38.06,4.66-53.22,13.96c-15.17,9.31-26.95,22.36-35.35,39.16s-12.6,36.4-12.6,58.79,4.2,41.57,12.6,58.3c8.4,16.73,20.18,29.75,35.35,39.06,15.17,9.31,32.91,13.96,53.22,13.96s38.25-4.65,53.42-13.96c15.17-9.31,26.95-22.33,35.35-39.06,8.4-16.73,12.6-36.16,12.6-58.3s-4.2-41.99-12.6-58.79-20.18-29.85-35.35-39.16Zm-1.66,135.94c-4.3,11.4-10.78,20.44-19.43,27.15-8.66,6.71-19.43,10.06-32.32,10.06s-23.6-3.35-32.13-10.06c-8.53-6.71-14.94-15.75-19.24-27.15-4.3-11.39-6.45-24.05-6.45-37.99s2.15-26.98,6.45-38.38c4.3-11.39,10.71-20.47,19.24-27.25,8.53-6.77,19.24-10.16,32.13-10.16s23.66,3.39,32.32,10.16c8.66,6.77,15.14,15.85,19.43,27.25,4.3,11.4,6.45,24.19,6.45,38.38s-2.15,26.6-6.45,37.99Z" fill="#d4d4d4"/>
    <path d="m967.02,76.43c-12.89,0-24.12,3.32-33.69,9.96s-16.38,15.82-20.41,27.54h-1.95v-34.57h-41.21v215.62h42.77v-130.27c0-9.89,2.15-18.52,6.45-25.88,4.3-7.35,10.22-13.05,17.77-17.09,7.55-4.03,16.02-6.05,25.39-6.05,4.69,0,9.21.26,13.57.78,4.36.52,7.32.98,8.89,1.37v-40.43c-2.22-.26-4.98-.49-8.3-.68s-6.42-.29-9.28-.29Z" fill="#d4d4d4"/>
    <path d="m1105.16,260.71c-3.65.46-6.71.68-9.18.68-8.47,0-14.45-1.95-17.97-5.86s-5.27-10.09-5.27-18.55v-122.85h43.16v-34.77h-43.16V26.43h-42.77v52.93h-32.81v34.77h32.81v126.76c0,18.1,5.3,32,15.92,41.7,10.61,9.7,25.75,14.55,45.41,14.55,4.95,0,9.96-.26,15.04-.78,5.08-.52,9.83-1.37,14.26-2.54l-6.05-34.38c-2.61.39-5.73.81-9.38,1.27Z" fill="#d4d4d4"/>
    <path d="m1293.59,91.67c-8.4-5.6-17.58-9.57-27.54-11.91s-19.76-3.52-29.39-3.52c-13.8,0-26.76,2.05-38.87,6.15s-22.56,10.35-31.35,18.75-15.2,19.17-19.24,32.32l40.43,8.01c1.69-5.21,4.65-10.12,8.89-14.75,4.23-4.62,9.73-8.4,16.5-11.33,6.77-2.93,14.78-4.39,24.02-4.39s16.8,1.5,23.05,4.49c6.25,3,10.94,7.26,14.06,12.79,3.12,5.54,4.69,12.27,4.69,20.21v1.17c0,5.08-1.86,8.73-5.57,10.94-3.71,2.22-9.51,3.84-17.38,4.88-7.88,1.04-18.26,2.34-31.15,3.91-10.42,1.17-20.61,2.93-30.57,5.27s-18.92,5.79-26.86,10.35c-7.94,4.56-14.29,10.78-19.04,18.65-4.75,7.88-7.13,17.94-7.13,30.18,0,14.19,3.22,26.17,9.67,35.94s15.2,17.16,26.27,22.17c11.07,5.01,23.5,7.52,37.3,7.52,11.85,0,22-1.69,30.47-5.08,8.46-3.38,15.43-7.68,20.9-12.89,5.47-5.21,9.63-10.61,12.5-16.21h1.76v29.69h41.41v-144.14c0-14.58-2.54-26.69-7.62-36.33-5.08-9.63-11.82-17.25-20.21-22.85Zm-14.55,125c0,8.47-2.15,16.41-6.45,23.83s-10.55,13.41-18.75,17.97c-8.2,4.56-18.23,6.84-30.08,6.84-7.94,0-14.97-1.17-21.09-3.52-6.12-2.34-10.91-5.79-14.36-10.35-3.45-4.56-5.18-10.22-5.18-16.99,0-7.42,1.98-13.38,5.96-17.87,3.97-4.49,9.31-7.94,16.02-10.35,6.71-2.41,13.96-4.13,21.78-5.18,3.91-.52,8.46-1.14,13.67-1.86,5.21-.71,10.48-1.56,15.82-2.54,5.34-.98,10.09-2.05,14.26-3.22,4.17-1.17,6.96-2.47,8.4-3.91v27.15Z" fill="#d4d4d4"/>
    <rect x="1370.5" y="3.97" width="42.77" height="291.02" fill="#d4d4d4"/>
  </g>
  <g>
    <polygon points="1569.44 147.49 1601.21 106.99 1601.15 106.92 1569.42 147.47 1569.44 147.49" fill="#d4d4d4"/>
    <polygon points="1547.86 38.99 1516.13 79.54 1549.63 122.24 1581.36 81.69 1547.86 38.99" fill="#d4d4d4"/>
    <polygon points="1517.27 0 1453.72 0 1496.33 54.31 1528.06 13.76 1517.27 0" fill="#d4d4d4"/>
    <polygon points="1748.71 0 1685.16 0 1601.21 106.99 1569.44 147.49 1558.53 161.4 1556.79 163.62 1556.78 163.62 1453.72 294.99 1505.18 294.99 1517.27 294.99 1631.95 294.99 1631.95 251.8 1551.15 251.8 1601.21 187.99 1685.16 294.99 1748.71 294.99 1632.99 147.49 1748.71 0" fill="#d4d4d4"/>
    <polygon points="1454.34 189.32 1454.34 243.8 1530.81 149.74 1454.34 51.19 1454.34 106.54 1487.2 148.9 1454.34 189.32" fill="#d4d4d4"/>
    <polygon points="1748.25 103.73 1748.25 51.19 1671.78 149.74 1748.25 243.8 1748.25 192 1713.21 148.9 1748.25 103.73" fill="#d4d4d4"/>
  </g>
</svg>